<svg xmlns="http://www.w3.org/2000/svg" xmlns:xlink="http://www.w3.org/1999/xlink" width="500" zoomAndPan="magnify" viewBox="0 0 375 374.999991" height="500" preserveAspectRatio="xMidYMid meet" version="1.0"><defs><g/><clipPath id="bdcc8259c8"><path d="M 150 104.847656 L 226.121094 104.847656 L 226.121094 156 L 150 156 Z M 150 104.847656 " clip-rule="nonzero"/></clipPath><clipPath id="62869a31b8"><path d="M 148.871094 144 L 225 144 L 225 176 L 148.871094 176 Z M 148.871094 144 " clip-rule="nonzero"/></clipPath><clipPath id="16ba6c49f1"><path d="M 188 176 L 202 176 L 202 193.347656 L 188 193.347656 Z M 188 176 " clip-rule="nonzero"/></clipPath><clipPath id="08bbc9338e"><path d="M 173 176 L 187 176 L 187 193.347656 L 173 193.347656 Z M 173 176 " clip-rule="nonzero"/></clipPath></defs><path fill="#f8ee00" d="M 206.140625 150.0625 C 206.140625 152.851562 203.882812 155.117188 201.085938 155.117188 C 198.292969 155.117188 196.03125 152.859375 196.03125 150.0625 C 196.03125 147.269531 198.292969 145.007812 201.085938 145.007812 C 203.882812 145.007812 206.140625 147.269531 206.140625 150.0625 Z M 206.140625 150.0625 " fill-opacity="1" fill-rule="nonzero"/><path fill="#f8ee00" d="M 173.90625 145.007812 C 176.695312 145.007812 178.964844 147.269531 178.964844 150.0625 C 178.964844 152.851562 176.703125 155.117188 173.90625 155.117188 C 171.113281 155.117188 168.851562 152.851562 168.851562 150.0625 C 168.851562 147.269531 171.113281 145.007812 173.90625 145.007812 Z M 173.90625 145.007812 " fill-opacity="1" fill-rule="nonzero"/><g clip-path="url(#bdcc8259c8)"><path fill="#f8ee00" d="M 218.085938 155.449219 L 226.09375 155.449219 C 226.097656 155.269531 226.121094 155.097656 226.121094 154.925781 L 226.121094 145.195312 C 226.121094 133.992188 217.003906 124.878906 205.804688 124.878906 L 189.304688 124.878906 L 189.304688 116.171875 C 191.621094 115.40625 193.308594 113.25 193.308594 110.671875 C 193.308594 107.460938 190.703125 104.855469 187.492188 104.855469 C 184.28125 104.855469 181.671875 107.460938 181.671875 110.671875 C 181.671875 113.25 183.359375 115.410156 185.679688 116.171875 L 185.679688 124.882812 L 169.1875 124.882812 C 160.71875 124.882812 153.453125 130.097656 150.40625 137.472656 L 159.625 137.472656 C 161.878906 134.683594 165.328125 132.890625 169.1875 132.890625 L 205.808594 132.890625 C 212.59375 132.890625 218.113281 138.410156 218.113281 145.195312 L 218.113281 154.925781 C 218.113281 155.101562 218.09375 155.277344 218.085938 155.449219 Z M 186.996094 108.167969 C 186.996094 109.074219 186.257812 109.8125 185.351562 109.8125 C 184.441406 109.8125 183.707031 109.074219 183.707031 108.167969 C 183.707031 107.257812 184.441406 106.519531 185.351562 106.519531 C 186.257812 106.519531 186.996094 107.261719 186.996094 108.167969 Z M 186.996094 108.167969 " fill-opacity="1" fill-rule="nonzero"/></g><g clip-path="url(#62869a31b8)"><path fill="#f8ee00" d="M 148.902344 144.671875 L 156.914062 144.671875 C 156.90625 144.851562 156.886719 145.023438 156.886719 145.195312 L 156.886719 154.925781 C 156.886719 161.710938 162.40625 167.230469 169.191406 167.230469 L 205.8125 167.230469 C 209.671875 167.230469 213.121094 165.4375 215.375 162.648438 L 224.59375 162.648438 C 221.550781 170.03125 214.28125 175.238281 205.8125 175.238281 L 169.1875 175.238281 C 157.984375 175.238281 148.871094 166.125 148.871094 154.921875 L 148.871094 145.195312 C 148.871094 145.019531 148.894531 144.847656 148.902344 144.671875 Z M 148.902344 144.671875 " fill-opacity="1" fill-rule="nonzero"/></g><g clip-path="url(#16ba6c49f1)"><path fill="#f8ee00" d="M 201.207031 178.125 L 201.207031 191.046875 L 198.835938 193.121094 L 188.671875 186.679688 L 188.671875 182.488281 L 198.835938 176.046875 Z M 201.207031 178.125 " fill-opacity="1" fill-rule="nonzero"/></g><g clip-path="url(#08bbc9338e)"><path fill="#f8ee00" d="M 186.320312 182.488281 L 186.320312 186.679688 L 176.160156 193.121094 L 173.789062 191.046875 L 173.789062 178.125 L 176.160156 176.046875 Z M 186.320312 182.488281 " fill-opacity="1" fill-rule="nonzero"/></g><path fill="#f8ee00" d="M 186.660156 182.535156 L 188.332031 182.535156 L 188.332031 186.632812 L 186.660156 186.632812 Z M 186.660156 182.535156 " fill-opacity="1" fill-rule="nonzero"/><g fill="#f8ee00" fill-opacity="1"><g transform="translate(77.730622, 222.699785)"><g><path d="M 18.484375 0 L 4.40625 0 C 3.757812 0 3.164062 -0.15625 2.625 -0.46875 C 2.09375 -0.789062 1.664062 -1.21875 1.34375 -1.75 C 1.03125 -2.28125 0.875 -2.867188 0.875 -3.515625 L 0.875 -14.078125 C 0.875 -14.722656 1.03125 -15.3125 1.34375 -15.84375 C 1.664062 -16.382812 2.09375 -16.8125 2.625 -17.125 C 3.164062 -17.4375 3.757812 -17.59375 4.40625 -17.59375 L 18.484375 -17.59375 L 18.484375 -14.078125 L 4.40625 -14.078125 L 4.40625 -3.515625 L 18.484375 -3.515625 Z M 18.484375 0 "/></g></g></g><g fill="#f8ee00" fill-opacity="1"><g transform="translate(97.747168, 222.699785)"><g><path d="M 18.484375 -14.078125 L 18.484375 -10.5625 C 18.484375 -9.914062 18.320312 -9.320312 18 -8.78125 C 17.6875 -8.25 17.257812 -7.828125 16.71875 -7.515625 C 16.1875 -7.203125 15.597656 -7.046875 14.953125 -7.046875 L 11.4375 -7.046875 L 14.953125 -3.515625 L 18.484375 -3.515625 L 18.484375 0 L 14.25 0 C 13.757812 0 13.335938 -0.175781 12.984375 -0.53125 L 6.46875 -7.046875 L 4.40625 -7.046875 L 4.40625 0 L 0.875 0 L 0.875 -17.59375 L 14.953125 -17.59375 C 15.597656 -17.59375 16.1875 -17.4375 16.71875 -17.125 C 17.257812 -16.8125 17.6875 -16.382812 18 -15.84375 C 18.320312 -15.3125 18.484375 -14.722656 18.484375 -14.078125 Z M 14.953125 -14.078125 L 4.40625 -14.078125 L 4.40625 -10.5625 L 14.953125 -10.5625 Z M 14.953125 -14.078125 "/></g></g></g><g fill="#f8ee00" fill-opacity="1"><g transform="translate(117.763715, 222.699785)"><g><path d="M 18.484375 -17.59375 L 18.484375 -14.078125 L 4.40625 -14.078125 L 4.40625 -10.5625 L 18.484375 -10.5625 L 18.484375 -7.046875 L 4.40625 -7.046875 L 4.40625 -3.515625 L 18.484375 -3.515625 L 18.484375 0 L 4.40625 0 C 3.757812 0 3.164062 -0.15625 2.625 -0.46875 C 2.09375 -0.789062 1.664062 -1.21875 1.34375 -1.75 C 1.03125 -2.28125 0.875 -2.867188 0.875 -3.515625 L 0.875 -14.078125 C 0.875 -14.722656 1.03125 -15.3125 1.34375 -15.84375 C 1.664062 -16.382812 2.09375 -16.8125 2.625 -17.125 C 3.164062 -17.4375 3.757812 -17.59375 4.40625 -17.59375 Z M 18.484375 -17.59375 "/></g></g></g><g fill="#f8ee00" fill-opacity="1"><g transform="translate(137.780262, 222.699785)"><g><path d="M 4.40625 -17.59375 L 14.953125 -17.59375 C 15.597656 -17.59375 16.1875 -17.4375 16.71875 -17.125 C 17.257812 -16.8125 17.6875 -16.382812 18 -15.84375 C 18.320312 -15.3125 18.484375 -14.722656 18.484375 -14.078125 L 18.484375 0 L 14.953125 0 L 14.953125 -7.046875 L 4.40625 -7.046875 L 4.40625 0 L 0.875 0 L 0.875 -14.078125 C 0.875 -14.722656 1.03125 -15.3125 1.34375 -15.84375 C 1.664062 -16.382812 2.09375 -16.8125 2.625 -17.125 C 3.164062 -17.4375 3.757812 -17.59375 4.40625 -17.59375 Z M 4.40625 -14.078125 L 4.40625 -10.5625 L 14.953125 -10.5625 L 14.953125 -14.078125 Z M 4.40625 -14.078125 "/></g></g></g><g fill="#f8ee00" fill-opacity="1"><g transform="translate(157.796807, 222.699785)"><g><path d="M 18.484375 -17.59375 L 18.484375 -14.078125 L 11.4375 -14.078125 L 11.4375 0 L 7.921875 0 L 7.921875 -14.078125 L 0.875 -14.078125 L 0.875 -17.59375 Z M 18.484375 -17.59375 "/></g></g></g><g fill="#f8ee00" fill-opacity="1"><g transform="translate(177.813352, 222.699785)"><g><path d="M 18.484375 0 L 0.875 0 L 0.875 -3.515625 L 7.921875 -3.515625 L 7.921875 -14.078125 L 0.875 -14.078125 L 0.875 -17.59375 L 18.484375 -17.59375 L 18.484375 -14.078125 L 11.4375 -14.078125 L 11.4375 -3.515625 L 18.484375 -3.515625 Z M 18.484375 0 "/></g></g></g><g fill="#f8ee00" fill-opacity="1"><g transform="translate(197.829902, 222.699785)"><g><path d="M 9.6875 0 C 8.882812 0 8.148438 -0.28125 7.484375 -0.84375 L 1.546875 -5.9375 C 1.097656 -6.332031 0.875 -6.800781 0.875 -7.34375 L 0.875 -17.59375 L 4.40625 -17.59375 L 4.40625 -8.140625 L 9.6875 -3.59375 L 14.953125 -8.140625 L 14.953125 -17.59375 L 18.484375 -17.59375 L 18.453125 -7.34375 C 18.453125 -6.789062 18.238281 -6.320312 17.8125 -5.9375 L 11.875 -0.84375 C 11.226562 -0.28125 10.5 0 9.6875 0 Z M 9.6875 0 "/></g></g></g><g fill="#f8ee00" fill-opacity="1"><g transform="translate(217.846453, 222.699785)"><g><path d="M 4.40625 -17.59375 L 14.953125 -17.59375 C 15.597656 -17.59375 16.1875 -17.4375 16.71875 -17.125 C 17.257812 -16.8125 17.6875 -16.382812 18 -15.84375 C 18.320312 -15.3125 18.484375 -14.722656 18.484375 -14.078125 L 18.484375 0 L 14.953125 0 L 14.953125 -7.046875 L 4.40625 -7.046875 L 4.40625 0 L 0.875 0 L 0.875 -14.078125 C 0.875 -14.722656 1.03125 -15.3125 1.34375 -15.84375 C 1.664062 -16.382812 2.09375 -16.8125 2.625 -17.125 C 3.164062 -17.4375 3.757812 -17.59375 4.40625 -17.59375 Z M 4.40625 -14.078125 L 4.40625 -10.5625 L 14.953125 -10.5625 L 14.953125 -14.078125 Z M 4.40625 -14.078125 "/></g></g></g><g fill="#f8ee00" fill-opacity="1"><g transform="translate(237.863004, 222.699785)"><g><path d="M 18.484375 -17.59375 L 18.484375 -14.078125 L 4.40625 -14.078125 L 4.40625 -3.515625 L 14.953125 -3.515625 L 14.953125 -7.046875 L 7.921875 -7.046875 L 7.921875 -10.5625 L 18.484375 -10.5625 L 18.484375 -3.515625 C 18.484375 -2.890625 18.320312 -2.304688 18 -1.765625 C 17.6875 -1.234375 17.265625 -0.804688 16.734375 -0.484375 C 16.210938 -0.160156 15.617188 0 14.953125 0 L 4.40625 0 C 3.757812 0 3.164062 -0.15625 2.625 -0.46875 C 2.09375 -0.789062 1.664062 -1.21875 1.34375 -1.75 C 1.03125 -2.28125 0.875 -2.867188 0.875 -3.515625 L 0.875 -14.078125 C 0.875 -14.722656 1.03125 -15.3125 1.34375 -15.84375 C 1.664062 -16.382812 2.09375 -16.8125 2.625 -17.125 C 3.164062 -17.4375 3.757812 -17.59375 4.40625 -17.59375 Z M 18.484375 -17.59375 "/></g></g></g><g fill="#f8ee00" fill-opacity="1"><g transform="translate(257.879554, 222.699785)"><g><path d="M 18.484375 -17.59375 L 18.484375 -14.078125 L 4.40625 -14.078125 L 4.40625 -10.5625 L 18.484375 -10.5625 L 18.484375 -7.046875 L 4.40625 -7.046875 L 4.40625 -3.515625 L 18.484375 -3.515625 L 18.484375 0 L 4.40625 0 C 3.757812 0 3.164062 -0.15625 2.625 -0.46875 C 2.09375 -0.789062 1.664062 -1.21875 1.34375 -1.75 C 1.03125 -2.28125 0.875 -2.867188 0.875 -3.515625 L 0.875 -14.078125 C 0.875 -14.722656 1.03125 -15.3125 1.34375 -15.84375 C 1.664062 -16.382812 2.09375 -16.8125 2.625 -17.125 C 3.164062 -17.4375 3.757812 -17.59375 4.40625 -17.59375 Z M 18.484375 -17.59375 "/></g></g></g><g fill="#f8ee00" fill-opacity="1"><g transform="translate(277.896105, 222.699785)"><g><path d="M 4.40625 0 L 0.875 0 L 0.875 -15.84375 C 0.875 -16.320312 1.046875 -16.734375 1.390625 -17.078125 C 1.734375 -17.421875 2.148438 -17.59375 2.640625 -17.59375 C 3.117188 -17.59375 3.535156 -17.421875 3.890625 -17.078125 L 14.953125 -6 L 14.953125 -17.59375 L 18.484375 -17.59375 L 18.484375 -1.765625 C 18.484375 -1.273438 18.3125 -0.859375 17.96875 -0.515625 C 17.625 -0.171875 17.207031 0 16.71875 0 C 16.238281 0 15.820312 -0.175781 15.46875 -0.53125 L 4.40625 -11.59375 Z M 4.40625 0 "/></g></g></g></svg>